# xmcd
#
# Track frame offsets:
#	150
#	15265
#	24966
#	39994
#	50054
#	59387
#	71935
#	82500
#	98490
#	109576
#	121480
#	131312
#	145369
#	163840
#	180723
#	194009
#	210103
#	225047
#	241183
#	253859
#	264978
#	274448
#	283888
#	291530
#	301555
#	318471
#	331798
#
# Disc length: 4593 seconds
#
# Revision: 0
# Processed by: cddbd v1.5.2PL0 Copyright (c) Steve Scherf et al.
# Submitted via: EZCDAudioConverter 2.1.7.1
#
DISCID=7611ef1b
DTITLE=Henry Mancini - Classic Soundtrack Collection
DYEAR=1900
DGENRE=
TTITLE0=Fluters' Ball
TTITLE1=Tooty Twist
TTITLE2=Kelly's Tune
TTITLE3=Golden Gate Twist
TTITLE4=The Good Old Days
TTITLE5=Experiment In Terror (Twist)
TTITLE6=Experiment In Terror
TTITLE7=Nancy
TTITLE8=Down By The Wharf
TTITLE9=Teenage Hostage
TTITLE10=White On White
TTITLE11=Final Out At Candlestick Park
TTITLE12=Overture
TTITLE13=Whistling Away The Dark
TTITLE14=The Little Birds (Les Petits Oiseaux)
TTITLE15=The Girl In No Man's Land
TTITLE16=Gypsy Violin
TTITLE17=I'll Give You Three Guesses
TTITLE18=Darling Lili
TTITLE19=Smile Away Each Rainy Day
TTITLE20=The Can-Can Café
TTITLE21=I'll Give You Three Guesses
TTITLE22=Skål (Let's Have Another On Me)
TTITLE23=Your Good-Will Ambassador
TTITLE24=Whistling Away The Dark
TTITLE25=Whistling Away The Dark
TTITLE26=Darling Lili
EXTD=
EXTT0=
EXTT1=
EXTT2=
EXTT3=
EXTT4=
EXTT5=
EXTT6=
EXTT7=
EXTT8=
EXTT9=
EXTT10=
EXTT11=
EXTT12=
EXTT13=
EXTT14=
EXTT15=
EXTT16=
EXTT17=
EXTT18=
EXTT19=
EXTT20=
EXTT21=
EXTT22=
EXTT23=
EXTT24=
EXTT25=
EXTT26=
PLAYORDER=
